HIERARCHY
ROOT Hips
{
	OFFSET -3.958830 18.904000 13.208200
	CHANNELS 6 Xposition Yposition Zposition Zrotation Yrotation Xrotation 
	JOINT LHipJoint
	{
		OFFSET 0.000000 0.000000 0.000000
		CHANNELS 3 Zrotation Yrotation Xrotation
		JOINT LeftUpLeg
		{
			OFFSET 1.800000 -1.400000 0.085000
			CHANNELS 3 Zrotation Yrotation Xrotation
			JOINT LeftLeg
			{
				OFFSET 2.215000 -6.000000 0.000000
				CHANNELS 3 Zrotation Yrotation Xrotation
				JOINT LeftFoot
				{
					OFFSET 2.500000 -6.900000 0.000000
					CHANNELS 3 Zrotation Yrotation Xrotation
					JOINT LeftToeBase
					{
						OFFSET 0.200000 -0.500000 1.950000
						CHANNELS 3 Zrotation Yrotation Xrotation
						End Site
						{
							OFFSET 0.000000 0.000000 0.000000
						}
					}
				}
			}
		}
	}
	JOINT RHipJoint
	{
		OFFSET 0.000000 0.000000 0.000000
		CHANNELS 3 Zrotation Yrotation Xrotation
		JOINT RightUpLeg
		{
			OFFSET -1.800000 -1.400000 0.085000
			CHANNELS 3 Zrotation Yrotation Xrotation
			JOINT RightLeg
			{
				OFFSET -2.215000 -6.000000 0.000000
				CHANNELS 3 Zrotation Yrotation Xrotation
				JOINT RightFoot
				{
					OFFSET -2.500000 -6.900000 0.000000
					CHANNELS 3 Zrotation Yrotation Xrotation
					JOINT RightToeBase
					{
						OFFSET -0.200000 -0.500000 1.950000
						CHANNELS 3 Zrotation Yrotation Xrotation
						End Site
						{
							OFFSET 0.000000 0.000000 0.000000
						}
					}
				}
			}
		}
	}
	JOINT LowerBack
	{
		OFFSET 0.000000 0.000000 0.000000
		CHANNELS 3 Zrotation Yrotation Xrotation
		JOINT Spine
		{
			OFFSET -0.087000 1.940000 -0.288900
			CHANNELS 3 Zrotation Yrotation Xrotation
			JOINT Spine1
			{
				OFFSET 0.000000 1.950000 0.060000
				CHANNELS 3 Zrotation Yrotation Xrotation
				JOINT Neck
				{
					OFFSET 0.000000 0.000000 0.000000
					CHANNELS 3 Zrotation Yrotation Xrotation
					JOINT Neck1
					{
						OFFSET 0.000000 1.600000 0.340000
						CHANNELS 3 Zrotation Yrotation Xrotation
						JOINT Head
						{
							OFFSET 0.000000 1.667000 -0.240000
							CHANNELS 3 Zrotation Yrotation Xrotation
							End Site
							{
								OFFSET 0.000000 0.000000 0.000000
							}
						}
					}
				}
				JOINT LeftShoulder
				{
					OFFSET 0.000000 0.000000 0.000000
					CHANNELS 3 Zrotation Yrotation Xrotation
					JOINT LeftArm
					{
						OFFSET 2.700000 1.550000 -0.730000
						CHANNELS 3 Zrotation Yrotation Xrotation
						JOINT LeftForeArm
						{
							OFFSET 5.450000 0.000000 0.000000
							CHANNELS 3 Zrotation Yrotation Xrotation
							JOINT LeftHand
							{
								OFFSET 3.450000 0.000000 0.000000
								CHANNELS 3 Zrotation Yrotation Xrotation
								JOINT LeftHandIndex1
								{
									OFFSET 0.750000 0.000000 0.000000
									CHANNELS 3 Zrotation Yrotation Xrotation
									End Site
									{
										OFFSET 0.000000 0.000000 0.000000
									}
								}
							}
						}
					}
				}
				JOINT RightShoulder
				{
					OFFSET 0.000000 0.000000 0.000000
					CHANNELS 3 Zrotation Yrotation Xrotation
					JOINT RightArm
					{
						OFFSET -2.700000 1.550000 -0.730000
						CHANNELS 3 Zrotation Yrotation Xrotation
						JOINT RightForeArm
						{
							OFFSET -5.450000 0.000000 0.000000
							CHANNELS 3 Zrotation Yrotation Xrotation
							JOINT RightHand
							{
								OFFSET -3.450000 0.000000 0.000000
								CHANNELS 3 Zrotation Yrotation Xrotation
								JOINT RightHandIndex1
								{
									OFFSET -0.750000 0.000000 0.000000
									CHANNELS 3 Zrotation Yrotation Xrotation
									End Site
									{
										OFFSET 0.000000 0.000000 0.000000
									}
								}
							}
						}
					}
				}
			}
		}
	}
}
MOTION
Frames: 8
Frame Time: 0.016667
-0.212640 17.416700 -3.975480 -7.264115 -15.996173 -6.700728 -14.705904 13.602723 2.011236 17.683894 1.495576 -2.729200 3.117814 4.780607 11.848150 -0.093574 4.157927 3.205238 0.456530 0.197610 0.380340 18.583957 -11.390892 3.414744 -5.598207 -0.436318 -0.668946 6.428214 -4.181844 1.283551 -0.464474 -4.056965 3.267004 0.021390 0.008980 0.073600 -4.499707 -0.570066 -7.297637 19.168129 -2.193553 14.439700 -7.587622 -0.721217 20.759935 6.223396 -7.933649 -16.357537 -15.199383 9.212847 38.575390 -5.906690 7.897160 -3.124230 -14.947745 -21.032105 11.864576 -40.793186 4.890279 -11.383264 -62.455402 -37.830863 12.739489 -3.402192 3.453504 0.350310 0.012410 -0.027210 0.136270 4.532833 29.961627 11.999483 30.377964 17.531451 -12.127318 32.779189 68.585790 13.193011 1.886391 -1.942073 -0.008450 0.044640 -0.141430 -0.195910 
-0.204440 17.416610 -3.978870 -7.962198 -16.674653 -7.165105 -14.667263 13.515779 1.962903 18.476152 1.622076 -2.104792 3.235885 4.869186 12.019405 -0.079911 4.243394 3.182298 0.473950 0.218380 0.391700 18.636292 -11.459486 3.425248 -5.183285 -0.560439 -0.061948 6.393263 -4.272313 1.507084 -0.490749 -4.139216 3.240584 0.036220 0.003640 0.078850 -4.644207 -0.295237 -7.224398 20.481472 -2.448736 14.857539 -7.739424 -1.087622 21.810559 6.284004 -8.245627 -16.001369 -15.289266 9.440919 37.447843 -6.788860 8.419880 -3.987400 -13.806212 -20.806669 11.778115 -41.043632 4.504711 -11.498109 -64.326485 -37.509689 13.025517 -3.401613 3.476459 0.343630 0.015860 -0.025940 0.144500 3.474528 29.857374 11.743404 30.901079 18.931366 -13.259802 27.384317 71.650598 9.980072 1.822340 -1.975905 -0.004390 0.041240 -0.153970 -0.196960 
-0.197880 17.411130 -3.982980 -7.946857 -17.648978 -8.566876 -14.696525 13.521634 1.911959 18.823140 1.889391 -0.750094 3.779419 4.927928 12.311356 -0.027050 4.327554 3.173386 0.520580 0.277960 0.435260 18.618494 -11.489718 3.399981 -5.657983 -0.795128 1.097356 6.362242 -4.433371 1.927465 -0.542577 -4.268032 3.198449 0.065050 -0.027820 0.072240 -4.588927 -0.272961 -7.158311 19.759134 -2.501738 16.115594 -6.341563 -1.531615 23.999053 5.958292 -8.493784 -15.771719 -15.162689 9.949657 35.800854 -7.462060 9.339840 -5.521930 -11.770486 -21.346979 12.290467 -41.749540 4.476720 -12.460140 -68.637632 -37.990339 14.058445 -3.351996 3.517535 0.339700 -0.003490 0.000490 0.167280 2.514791 30.720547 11.476400 30.914816 20.941858 -16.187186 11.445604 77.109808 -1.790016 1.725555 -1.923615 0.009210 0.038710 -0.206350 -0.195900 
-0.191820 17.410160 -4.000060 -7.760550 -18.149213 -10.524112 -14.834225 13.643691 1.855857 19.165393 2.262887 0.466130 4.564214 5.016571 13.027742 -0.052341 4.543240 3.117434 0.510130 0.254420 0.467180 18.503544 -11.408249 3.327143 -6.256393 -1.046134 2.629787 6.294567 -4.690113 2.677263 -0.562444 -4.430986 3.132232 0.082420 -0.020390 0.074330 -4.229288 -0.616334 -7.107683 17.236816 -1.995572 18.225829 -3.082694 -1.819368 26.590576 5.454585 -7.975755 -14.840702 -13.384614 9.908604 33.427415 -9.142350 10.156290 -8.200970 -8.541915 -21.588896 12.420189 -42.893723 2.714146 -12.909207 -73.488591 -39.715857 16.349299 -3.374966 3.523319 0.356400 0.014740 -0.009870 0.142820 0.726235 30.998506 10.375410 30.882381 24.007068 -19.401317 -18.345944 79.593565 -24.649351 1.631803 -1.371782 -0.032780 0.066110 -0.187620 -0.230090 
-0.189370 17.398380 -4.014090 -7.160951 -18.491043 -12.128451 -15.061058 13.864532 1.808237 18.956357 2.603446 1.205627 5.659615 4.966642 13.662037 -0.066721 4.704553 3.080936 0.510010 0.239950 0.505580 18.304476 -11.231949 3.207633 -7.035191 -1.168920 3.714454 6.248089 -4.904032 3.562760 -0.554329 -4.560696 3.080133 0.101620 -0.006530 0.096450 -3.601388 -1.269049 -7.049429 13.357799 -0.717880 19.574058 1.161540 -1.548407 28.943359 4.859422 -6.841675 -14.095842 -10.755200 9.664156 31.514395 -11.135260 11.151610 -9.407610 -5.293860 -21.592918 12.293603 -43.851365 0.395880 -12.565676 -78.733029 -40.587504 18.746599 -3.412695 3.569623 0.342570 0.059620 -0.027860 0.129940 -1.098854 31.061169 9.522536 31.401104 26.876735 -21.657119 -55.364570 79.808309 -51.185831 1.543239 0.149046 -0.056870 0.066030 -0.183790 -0.258970 
-0.177350 17.392740 -4.017860 -6.894461 -18.694419 -13.132603 -15.313511 14.263000 1.813529 18.921065 2.897534 1.129332 6.919051 4.854081 14.305794 -0.069371 4.827171 3.044798 0.507880 0.232350 0.497440 18.059376 -10.935983 3.067714 -7.466500 -1.152451 4.322674 6.407358 -5.076857 4.853532 -0.522688 -4.585746 3.069887 0.114610 0.008920 0.099070 -2.832973 -2.444747 -7.059306 10.775511 0.419485 20.526178 5.521160 -1.502616 31.200362 3.914776 -7.516050 -15.006976 -12.228611 8.775711 30.467258 -11.570710 9.969690 -9.537200 -4.601238 -22.425773 12.568881 -43.484670 -0.701661 -12.296069 -84.821028 -42.532914 22.417992 -3.429922 3.602933 0.333260 0.077090 -0.049890 0.129220 -0.082437 32.978774 11.054810 27.149405 27.426777 -18.342608 -95.348258 70.799483 -79.047610 2.195910 1.067835 -0.069250 0.074310 -0.171970 -0.261920 
-0.169020 17.395680 -4.027470 -6.203944 -18.454691 -14.499158 -15.559470 14.593646 1.816365 18.688087 3.217268 1.395106 7.987772 4.740114 14.604056 -0.083108 4.952385 3.002411 0.523720 0.245170 0.504480 17.832722 -10.680600 2.894872 -8.333491 -1.141108 5.055158 6.274947 -5.253746 6.175227 -0.508432 -4.644320 3.031553 0.141390 0.023900 0.119710 -2.116831 -3.465311 -7.014218 7.730488 1.954688 21.380659 9.944930 -0.883798 33.857248 2.455493 -7.635211 -15.357459 -12.327481 7.698016 29.270548 -10.995290 8.476290 -10.658290 -1.893143 -23.376155 12.866072 -44.361404 -3.143789 -11.886500 -90.866640 -44.537019 26.482591 -3.449095 3.662325 0.326630 0.093630 -0.062030 0.122290 -0.369084 35.550247 11.705698 24.495699 27.647894 -19.305282 -111.839698 62.038845 -95.007372 2.677935 0.077334 -0.071900 0.081460 -0.157030 -0.265150 
-0.153030 17.401460 -4.035480 -5.601946 -18.184511 -15.435798 -15.738101 14.845425 1.804309 18.314330 3.544375 1.212909 9.000687 4.602527 15.016467 -0.100711 4.978530 2.973943 0.555230 0.294770 0.515490 17.664477 -10.519392 2.757414 -9.185282 -1.028160 5.219113 6.308552 -5.384987 7.409200 -0.491363 -4.662382 3.013465 0.180170 0.010190 0.115310 -1.593042 -4.178331 -6.971473 5.604917 3.305970 21.673822 13.539395 -0.363345 35.782689 1.240889 -7.827792 -15.717238 -12.619553 6.925195 29.299035 -10.171710 7.227920 -11.617880 0.779940 -24.709837 12.894837 -45.617221 -5.876297 -11.867861 -93.109059 -41.731083 24.300829 -3.444582 3.675536 0.320750 0.089390 -0.061050 0.115380 -1.046917 38.367249 12.435501 22.825404 27.921911 -19.745953 -119.242356 53.483045 -100.344582 2.612037 -0.428114 -0.064130 0.087630 -0.159520 -0.266190 
